<svg width="16" height="16" viewBox="0 0 16 16" fill="none" xmlns="http://www.w3.org/2000/svg">
<circle cx="8" cy="8" r="8" fill="#F0503C"/>
<path fill-rule="evenodd" clip-rule="evenodd" d="M10.1078 5.5443C10.2053 5.4768 10.34 5.48644 10.4268 5.57322C10.5244 5.67085 10.5244 5.82915 10.4268 5.92678L8.35355 8L10.4268 10.0732C10.5244 10.1709 10.5244 10.3291 10.4268 10.4268C10.34 10.5136 10.2053 10.5232 10.1078 10.4557L10.0732 10.4268L8 8.35355L5.92678 10.4268L5.89215 10.4557C5.79472 10.5232 5.66001 10.5136 5.57322 10.4268C5.47559 10.3291 5.47559 10.1709 5.57322 10.0732L7.64645 8L5.57322 5.92678C5.47559 5.82915 5.47559 5.67085 5.57322 5.57322C5.66001 5.48644 5.79472 5.4768 5.89215 5.5443L5.92678 5.57322L8 7.64645L10.0732 5.57322L10.1078 5.5443Z" fill="white"/>
<path d="M10.4268 5.57322L10.7803 5.21967L10.7803 5.21967L10.4268 5.57322ZM10.1078 5.5443L9.82312 5.13329L9.80458 5.14613L9.78727 5.16059L10.1078 5.5443ZM10.4268 5.92678L10.7803 6.28033L10.7803 6.28033L10.4268 5.92678ZM8.35355 8L8 7.64645L7.64645 8L8 8.35355L8.35355 8ZM10.4268 10.0732L10.7803 9.71967L10.7803 9.71967L10.4268 10.0732ZM10.1078 10.4557L9.78727 10.8394L9.80458 10.8539L9.82312 10.8667L10.1078 10.4557ZM10.0732 10.4268L9.71967 10.7803L9.73548 10.7961L9.75265 10.8105L10.0732 10.4268ZM8 8.35355L8.35355 8L8 7.64645L7.64645 8L8 8.35355ZM5.92678 10.4268L6.24735 10.8105L6.26452 10.7961L6.28033 10.7803L5.92678 10.4268ZM5.89215 10.4557L6.17688 10.8667L6.19542 10.8539L6.21273 10.8394L5.89215 10.4557ZM5.57322 10.4268L5.92678 10.0732L5.92678 10.0732L5.57322 10.4268ZM5.57322 10.0732L5.92678 10.4268L5.92678 10.4268L5.57322 10.0732ZM7.64645 8L8 8.35355L8.35355 8L8 7.64645L7.64645 8ZM5.57322 5.92678L5.92678 5.57322L5.92678 5.57322L5.57322 5.92678ZM5.57322 5.57322L5.21967 5.21967L5.21967 5.21967L5.57322 5.57322ZM5.89215 5.5443L6.21273 5.16059L6.19542 5.14613L6.17688 5.13329L5.89215 5.5443ZM5.92678 5.57322L6.28033 5.21967L6.26452 5.20386L6.24736 5.18952L5.92678 5.57322ZM8 7.64645L7.64645 8L8 8.35355L8.35355 8L8 7.64645ZM10.0732 5.57322L9.75265 5.18952L9.73548 5.20386L9.71967 5.21967L10.0732 5.57322ZM10.7803 5.21967C10.5196 4.95895 10.1157 4.93061 9.82312 5.13329L10.3926 5.95531C10.2949 6.02299 10.1604 6.01394 10.0732 5.92678L10.7803 5.21967ZM10.7803 6.28033C11.0732 5.98744 11.0732 5.51256 10.7803 5.21967L10.0732 5.92678C9.97559 5.82915 9.97559 5.67085 10.0732 5.57322L10.7803 6.28033ZM8.70711 8.35355L10.7803 6.28033L10.0732 5.57322L8 7.64645L8.70711 8.35355ZM8 8.35355L10.0732 10.4268L10.7803 9.71967L8.70711 7.64645L8 8.35355ZM10.0732 10.4268C9.97559 10.3291 9.97559 10.1709 10.0732 10.0732L10.7803 10.7803C11.0732 10.4874 11.0732 10.0126 10.7803 9.71967L10.0732 10.4268ZM10.0732 10.0732C10.1604 9.98606 10.2949 9.97701 10.3926 10.0447L9.82312 10.8667C10.1157 11.0694 10.5196 11.0411 10.7803 10.7803L10.0732 10.0732ZM10.4284 10.072L10.3938 10.0431L9.75265 10.8105L9.78727 10.8394L10.4284 10.072ZM10.4268 10.0732L8.35355 8L7.64645 8.70711L9.71967 10.7803L10.4268 10.0732ZM6.28033 10.7803L8.35355 8.70711L7.64645 8L5.57322 10.0732L6.28033 10.7803ZM6.21273 10.8394L6.24735 10.8105L5.6062 10.0431L5.57158 10.072L6.21273 10.8394ZM5.21967 10.7803C5.4804 11.0411 5.88432 11.0694 6.17688 10.8667L5.60742 10.0447C5.70512 9.97701 5.83962 9.98606 5.92678 10.0732L5.21967 10.7803ZM5.21967 9.71967C4.92678 10.0126 4.92678 10.4874 5.21967 10.7803L5.92678 10.0732C6.02441 10.1709 6.02441 10.3291 5.92678 10.4268L5.21967 9.71967ZM7.29289 7.64645L5.21967 9.71967L5.92678 10.4268L8 8.35355L7.29289 7.64645ZM8 7.64645L5.92678 5.57322L5.21967 6.28033L7.29289 8.35355L8 7.64645ZM5.92678 5.57322C6.02441 5.67085 6.02441 5.82915 5.92678 5.92678L5.21967 5.21967C4.92678 5.51256 4.92678 5.98744 5.21967 6.28033L5.92678 5.57322ZM5.92678 5.92678C5.83962 6.01394 5.70512 6.02299 5.60742 5.95531L6.17688 5.13329C5.88431 4.93061 5.4804 4.95894 5.21967 5.21967L5.92678 5.92678ZM5.57157 5.928L5.6062 5.95693L6.24736 5.18952L6.21273 5.16059L5.57157 5.928ZM5.57322 5.92678L7.64645 8L8.35355 7.29289L6.28033 5.21967L5.57322 5.92678ZM9.71967 5.21967L7.64645 7.29289L8.35355 8L10.4268 5.92678L9.71967 5.21967ZM9.78727 5.16059L9.75265 5.18952L10.3938 5.95693L10.4284 5.928L9.78727 5.16059Z" fill="white"/>
</svg>
